<?xml version="1.0" standalone="no"?><!DOCTYPE svg PUBLIC "-//W3C//DTD SVG 1.1//EN" "http://www.w3.org/Graphics/SVG/1.1/DTD/svg11.dtd"><svg t="1567480406064" class="icon" viewBox="0 0 1024 1024" version="1.1" xmlns="http://www.w3.org/2000/svg" p-id="10011" xmlns:xlink="http://www.w3.org/1999/xlink" width="200" height="200"><defs><style type="text/css"></style></defs><path d="M64.24 371.334c0-16.479 5.864-30.427 17.595-41.838 11.727-11.414 25.834-17.12 42.317-17.12h59.911v267.216h-59.911c-16.483 0-30.59-5.701-42.317-17.108C70.1 551.07 64.24 537.12 64.24 520.642V371.334zM729.91 125.99c27.26-25.993 51.985-40.254 74.173-42.791 22.192-2.534 41.838 3.33 58.961 17.598 17.116 14.265 31.698 35.182 43.742 62.759 12.045 27.58 21.876 58.327 29.478 92.243 7.606 33.918 13.31 69.418 17.116 106.505 3.804 37.09 5.705 72.43 5.705 106.03 0 33.602-2.377 67.204-7.13 100.8-4.756 33.597-11.735 65.145-20.925 94.625-9.194 29.474-19.971 55.308-32.332 77.496-12.367 22.189-26.151 38.678-41.37 49.452-15.216 10.777-31.536 14.578-48.972 11.41-17.43-3.174-35.657-15.535-54.678-37.09-18.383-21.55-43.267-39.462-74.645-53.723-31.385-14.265-65.613-26.309-102.704-36.136a1130.018 1130.018 0 0 0-112.688-23.771c-38.04-6.022-72.907-11.411-104.605-16.166-31.698-4.759-58.166-9.352-79.406-13.79-21.238-4.439-33.124-9.823-35.658-16.167V307.625c2.533-8.873 12.523-16.162 29.956-21.874 17.433-5.706 39.62-11.094 66.567-16.162 26.94-5.076 57.37-10.619 91.29-16.641 33.918-6.022 68.463-14.265 103.65-24.726 35.193-10.46 69.58-23.776 103.182-39.938 33.602-16.173 64.029-36.932 91.293-62.295zM387.567 708.926c3.171 7.606 6.973 15.849 11.414 24.726 3.797 8.247 8.873 17.754 15.215 28.527 6.336 10.78 13.95 22.512 22.822 35.19 10.778 15.215 21.717 31.218 32.807 48.021 11.094 16.8 19.495 32.018 25.201 45.647 5.705 13.628 7.448 24.883 5.227 33.757-2.213 8.876-11.252 13.315-27.1 13.315h-54.2c-12.678 0-24.412-2.38-35.194-7.138-10.77-4.751-21.076-12.044-30.903-21.87-9.826-9.828-19.97-22.347-30.427-37.562-10.467-15.216-21.716-33.278-33.76-54.203-14.583-24.096-24.726-45.172-30.435-63.238-5.705-18.074-9.506-33.127-11.41-45.175-2.534-13.945-2.534-25.989 0-36.13 5.071 0.63 11.097 1.897 18.066 3.802 5.705 1.267 12.68 2.85 20.92 4.758 8.243 1.9 17.754 3.802 28.531 5.702 10.778 2.54 20.443 4.914 29.002 7.138 8.56 2.21 16.324 4.592 23.3 7.13 7.612 2.527 14.582 5.068 20.924 7.603z" p-id="10012"></path></svg>