<?xml version="1.0" standalone="no"?><!DOCTYPE svg PUBLIC "-//W3C//DTD SVG 1.1//EN" "http://www.w3.org/Graphics/SVG/1.1/DTD/svg11.dtd"><svg t="1567480399383" class="icon" viewBox="0 0 1030 1024" version="1.1" xmlns="http://www.w3.org/2000/svg" p-id="9751" xmlns:xlink="http://www.w3.org/1999/xlink" width="201.171875" height="200"><defs><style type="text/css"></style></defs><path d="M947.228444 5.233778c-5.347556-3.441778-24.632889-13.056-47.559111 8.476444l-8.504889 8.049778c-59.704889 56.746667-99.128889 94.236444-318.208 20.508444C513.991111 22.442667 454.058667 13.596444 394.837333 15.957333a477.411556 477.411556 0 0 0-139.776 26.993778c-77.425778 27.306667-123.249778 65.450667-125.155555 67.072a26.737778 26.737778 0 0 0-4.408889 4.721778 26.936889 26.936889 0 0 0-10.382222 33.735111L454.257778 914.716444a26.908444 26.908444 0 1 0 49.208889-21.816888l-157.184-355.100445 2.645333-5.063111c35.640889-68.124444 76.060444-145.294222 283.733333-126.862222a220.899556 220.899556 0 0 0 116.679111-21.475556c32.028444-15.331556 62.520889-38.513778 90.652445-68.807111 44.003556-47.502222 82.801778-114.176 106.410667-182.926222 8.988444-26.168889 14.904889-50.432 17.237333-70.144 2.190222-18.631111 2.872889-44.828444-16.412445-57.287111z m-57.372444 125.496889c-20.110222 52.508444-49.152 102.058667-81.635556 139.605333-51.797333 59.818667-109.255111 87.352889-170.808888 81.891556-106.268444-9.443556-185.770667 4.124444-243.057778 41.472-36.408889 23.694222-58.823111 53.617778-75.548445 81.976888L172.515556 145.152c15.132444-10.894222 51.143111-34.360889 102.513777-52.167111 91.363556-31.715556 185.856-31.601778 280.775111 0.341333 112.384 37.774222 191.943111 50.375111 250.481778 39.651556 43.719111-8.021333 73.272889-28.302222 99.072-51.000889a407.324444 407.324444 0 0 1-15.502222 48.753778z m0 0" fill="" p-id="9752"></path><path d="M876.913778 634.424889c-91.562667-39.537778-218.680889-63.288889-363.434667-63.288889-7.936 0-15.843556 0.085333-23.694222 0.256v64.682667c7.822222-0.170667 15.729778-0.256 23.694222-0.256 264.533333 0 448.796444 84.935111 448.796445 161.052444 0 38.741333-45.539556 79.843556-125.098667 110.449778v0.113778c-78.990222 30.122667-189.980444 51.768889-320.483556 51.768889-264.533333 0-448.796444-84.906667-448.796444-161.052445 0-38.741333 45.511111-80.810667 125.127111-111.445333v-0.056889c9.984-3.84 20.110222-7.338667 30.264889-10.581333v-67.669334C86.613333 648.049778 0 716.288 0 796.842667c0 65.820444 57.685333 123.335111 153.201778 163.868444 91.562667 39.509333 218.680889 63.232 363.434666 63.232 292.721778 0 513.479111-96.995556 513.479112-225.706667 0-65.792-57.685333-123.306667-153.201778-163.811555z m0 0" fill="" p-id="9753"></path></svg>