<?xml version="1.0" standalone="no"?><!DOCTYPE svg PUBLIC "-//W3C//DTD SVG 1.1//EN" "http://www.w3.org/Graphics/SVG/1.1/DTD/svg11.dtd"><svg t="1566529976210" class="icon" viewBox="0 0 1024 1024" version="1.1" xmlns="http://www.w3.org/2000/svg" p-id="1130" xmlns:xlink="http://www.w3.org/1999/xlink" width="200" height="200"><defs><style type="text/css"></style></defs><path d="M487.317333 382.144v-101.269333a17.194667 17.194667 0 0 0-4.693333-14.208 17.493333 17.493333 0 0 0-24.618667 0l-171.52 188.053333a16.96 16.96 0 0 0-4.949333 13.098667 17.045333 17.045333 0 0 0 4.949333 13.077333l170.581334 187.008c6.4 5.44 18.048 8.512 25.557333 1.002667 3.882667-3.904 5.568-7.146667 5.013333-12.224v-103.04c113.28 0 215.808 81.6 236.117334 189.013333a256.170667 256.170667 0 0 0 21.376-102.72c0.042667-142.357333-115.370667-257.792-257.813334-257.792z" p-id="1131"></path><path d="M512 1024C229.226667 1024 0 794.773333 0 512S229.226667 0 512 0s512 229.226667 512 512-229.226667 512-512 512z m0-40.149333c260.586667 0 471.850667-211.264 471.850667-471.850667 0-260.586667-211.264-471.850667-471.850667-471.850667C251.413333 40.149333 40.149333 251.413333 40.149333 512c0 260.586667 211.264 471.850667 471.850667 471.850667z" p-id="1132"></path></svg>