<?xml version="1.0" standalone="no"?><!DOCTYPE svg PUBLIC "-//W3C//DTD SVG 1.1//EN" "http://www.w3.org/Graphics/SVG/1.1/DTD/svg11.dtd"><svg t="1567480391280" class="icon" viewBox="0 0 1111 1024" version="1.1" xmlns="http://www.w3.org/2000/svg" p-id="9496" xmlns:xlink="http://www.w3.org/1999/xlink" width="216.9921875" height="200"><defs><style type="text/css"></style></defs><path d="M694.105586 642.005661c-51.643642-40.187407-109.946194-63.245381-159.960771-63.24538-25.326112 0-52.479572 12.864193-77.320673 27.112092-15.848434-20.973855-39.079015-53.680687-50.657929-73.891363-10.754397-18.845514-23.481645-47.616628-32.788142-73.226613 18.132263-7.450619 34.671124-16.684364 45.933355-29.655545 37.930681-43.61529 53.766277-114.516706 43.462655-194.529187C447.958434 119.587919 373.78605 24.595743 293.911939 18.3334 248.131219 14.807088 193.895623 26.291853 155.81516 47.789234c-55.784777 31.517129-95.659779 85.918199-115.312694 157.321743-36.527003 132.731706-1.047052 312.141402 94.906586 479.930815 115.502418 201.919893 295.218812 337.590193 447.195453 337.590193 41.619614 0 79.981099-9.760125 114.008872-28.983662 18.697158-10.534715 80.942561-49.359813 97.150473-106.073242 18.981032-66.420773 2.785958-165.826546-99.658264-245.56942z m31.110577 225.986404c-6.509127 22.785512-36.651109 48.34557-63.649081 63.582035-23.219169 13.119536-49.779204 19.767034-78.962577 19.767035-125.256837 0-283.70409-124.064282-385.303822-301.687998-85.456012-149.418923-119.20847-312.502307-88.065084-425.619614 14.711512-53.466711 42.183083-91.880976 81.634414-114.170066 22.739864-12.834236 56.630692-20.896824 86.030893-20.896824 3.900056 0 7.728786 0.151209 11.427705 0.446495 34.626903 2.713206 91.491541 59.215513 103.739485 154.279015 7.483428 58.068606-2.691809 111.194383-26.507255 138.604614-2.440744 2.619057-10.932709 8.470567-40.438471 18.155087-35.210342 11.55609-33.087708 35.666823-30.535696 45.541068 9.222334 35.434303 31.049237 88.738393 49.705026 121.3739 13.595988 23.762666 37.779472 57.244088 44.867759 66.945726 30.597036 41.874958 39.424228 52.830491 59.50652 52.830491 11.16095 0 18.215001-4.253828 31.015-11.982614 10.29221-6.210989 41.608202-25.112136 54.463836-25.112137 33.955021 0 77.387719 18.020996 116.174301 48.211479 74.437713 57.941647 87.49591 125.661964 74.897047 169.732308z m0 0" p-id="9497"></path><path d="M569.660429 249.539374c-19.692856 0-35.643999 15.952569-35.643999 35.645425v34.770979c0 19.68715 15.952569 35.645425 35.643999 35.645426 19.690003 0 35.639719-15.952569 35.639719-35.645426v-34.770979c0-19.694283-15.949716-35.645425-35.639719-35.645425z m0 0M847.853943 249.539374c-19.68715 0-35.642572 15.952569-35.642572 35.645425v34.770979c0 19.68715 15.956848 35.645425 35.642572 35.645426 19.690003 0 35.642572-15.952569 35.642572-35.645426v-34.770979c0-19.694283-15.953995-35.645425-35.642572-35.645425z m0 0M796.652516 410.950897c-16.317753-10.721587-38.331528-6.156781-49.249972 10.00263-0.152636 0.222534-15.538883 22.544433-38.994851 22.544434-22.812616 0-37.010587-20.678569-37.963491-22.116483-10.476229-16.437579-32.29172-21.474557-48.880508-11.126714-16.725733 10.386359-21.859712 32.363045-11.467647 49.080219 12.8 20.594405 47.896222 55.448122 98.311646 55.448122 50.167213 0 85.707077-34.596946 98.796656-55.030157 10.52473-16.427594 5.741669-38.064772-10.551833-48.802051z m0 0" p-id="9498"></path><path d="M621.231319 0.858754c-43.160236 0-85.768416 6.359345-126.629132 18.901148-18.805572 5.778758-29.387362 25.722679-23.608603 44.538237 5.778758 18.801293 25.638516 29.394495 44.539663 23.615736 34.070567-10.464817 69.640388-15.769977 105.699499-15.769977 196.135429 0 355.689647 157.549983 355.689646 351.209005 0 102.933512-45.511111 200.336476-124.88024 267.245113-15.045314 12.693012-16.959679 35.177533-4.279505 50.228553 7.056904 8.36358 17.129433 12.674468 27.276139 12.674467a35.477098 35.477098 0 0 0 22.952413-8.394962c95.464349-80.48608 150.220617-197.76592 150.220617-321.747465-0.001427-232.96913-191.540666-422.499855-426.980497-422.499855z m0 0" p-id="9499"></path></svg>