<?xml version="1.0" standalone="no"?><!DOCTYPE svg PUBLIC "-//W3C//DTD SVG 1.1//EN" "http://www.w3.org/Graphics/SVG/1.1/DTD/svg11.dtd"><svg t="1567480382464" class="icon" viewBox="0 0 1074 1024" version="1.1" xmlns="http://www.w3.org/2000/svg" p-id="9241" xmlns:xlink="http://www.w3.org/1999/xlink" width="209.765625" height="200"><defs><style type="text/css"></style></defs><path d="M637.801369 813.206111a101.101145 101.101145 0 0 1 47.528527 61.539827 100.326902 100.326902 0 0 1-10.239988 76.774931l-0.049951 0.149853h0.049951a101.600657 101.600657 0 0 1-61.989387 47.203845 102.125144 102.125144 0 0 1-77.374345-10.140085l-0.599414-0.374634a101.450803 101.450803 0 0 1-46.579455-59.341976h-181.022999c-1.048974 0-2.172875-0.074927-3.196874-0.149854-62.93846-1.873168-151.426937-20.180268-215.689103-61.165193C36.963857 834.760036 0 787.481264 0 722.719587v-235.269957c0-23.127386 9.540671-44.1818 24.850701-59.441879a85.116774 85.116774 0 0 1 59.841488-24.675872h12.013254A439.395367 439.395367 0 0 1 225.429579 129.549579 445.464432 445.464432 0 0 1 540.346658 0.001249c122.954777 0 234.395812 49.476623 314.967031 129.54833a439.670098 439.670098 0 0 1 128.649209 273.7823h5.319798a84.692189 84.692189 0 0 1 61.539827 26.698894c14.335983 15.185152 23.127386 35.465323 23.127387 57.418857v263.991873c0 22.902606-9.615598 43.95702-24.975579 59.217099l0.049951 0.074926a84.91697 84.91697 0 0 1-59.741586 24.825726h-77.024687a85.216677 85.216677 0 0 1-59.766561-24.825726v0.099903a83.668191 83.668191 0 0 1-24.925628-59.366952V487.44963c0-23.127386 9.540671-44.1818 24.850701-59.441879a85.066823 85.066823 0 0 1 59.841488-24.675872h15.210128a384.898653 384.898653 0 0 0-112.065424-234.171032 389.169477 389.169477 0 0 0-275.056055-113.064447c-107.394991 0-204.624921 43.207752-274.981128 113.064447a383.974556 383.974556 0 0 0-111.940546 234.171032h8.291892a84.592287 84.592287 0 0 1 61.564803 26.698894c14.311007 15.185152 23.127386 35.465323 23.127386 57.418857v238.267026c0 15.509835-12.612668 28.097527-28.222404 28.097527-15.584761 0-28.222405-12.587692-28.222405-28.072551v-238.292002a27.972649 27.972649 0 0 0-7.292869-18.681733l-1.123901-1.023999a28.197429 28.197429 0 0 0-19.83061-8.316868H84.667214a28.297331 28.297331 0 0 0-28.197429 28.0226v235.269957c0 42.458485 26.124456 74.602055 62.613777 97.85432 54.996226 35.14064 131.846083 50.850279 186.692455 52.423741l1.723315-0.099903h181.097926c2.247802-7.692478 5.444676-15.235103 9.690525-22.577923v-0.074927a101.900364 101.900364 0 0 1 61.939436-47.278772 102.474802 102.474802 0 0 1 77.374345 10.239988l0.099902 0.049951 0.074927-0.074927z m-26.973626 49.201891a34.890884 34.890884 0 0 1-3.022045-1.798242 45.70531 45.70531 0 0 0-32.99274-3.496581 45.70531 45.70531 0 0 0-27.772845 21.12934H546.965187c-3.89619 6.743406-5.844286 14.136178-5.994139 21.478998v2.1479c0.099902 3.721361 0.599414 7.367796 1.573461 10.839402 2.82224 10.639597 9.565647 20.305146 19.480952 26.598992 1.198828 0.499512 2.397656 1.248779 3.496581 1.998046 10.539694 5.419701 22.253241 6.368773 32.99274 3.496581a45.305701 45.305701 0 0 0 26.923675-19.880561c0.624389-1.023999 1.198828-2.072973 1.898144-3.047021 5.36975-10.364865 6.318822-22.053437 3.496581-32.668057a45.130872 45.130872 0 0 0-20.005439-26.798797z m301.430266-402.980972a28.297331 28.297331 0 0 0-28.222404 28.0226v263.991873c0 7.567601 3.22185 14.610714 8.366819 19.730708h-0.074927l0.074927 0.074927c5.070043 5.020091 12.163107 8.216966 19.855585 8.216965h77.024687c7.592576 0 14.610714-3.246825 19.755683-8.366819l0.074927 0.049951 0.074927-0.049951c5.070043-5.045067 8.266917-12.08818 8.266916-19.630805V487.44963c0-7.11804-2.747314-13.711593-7.242918-18.681733l-1.098925-1.023999a28.147478 28.147478 0 0 0-19.83061-8.316868h-77.024687z"   p-id="9242"></path></svg>