<?xml version="1.0" standalone="no"?><!DOCTYPE svg PUBLIC "-//W3C//DTD SVG 1.1//EN" "http://www.w3.org/Graphics/SVG/1.1/DTD/svg11.dtd"><svg t="1569202993536" class="icon" viewBox="0 0 1024 1024" version="1.1" xmlns="http://www.w3.org/2000/svg" p-id="2507" xmlns:xlink="http://www.w3.org/1999/xlink" width="200" height="200"><defs><style type="text/css"></style></defs><path d="M99.1 413.2h26.2V138.1c0-18.6 15.1-34.2 34.2-34.2h257.6c11 0 20.5 4.9 26.9 12.4l119.2 128.6h302.1c18.6 0 34.2 15.4 34.2 34.5v129.8h25.9c18.8 0 34.7 15.4 34.7 34.5 0 2.2-0.5 3.7-0.5 5.6l-55.2 439.2c-1.2 10.5-7.1 19.3-15.2 24.7-6.3 5.8-14.9 9.8-23.9 9.8H159.5c-9.3 0-17.6-3.9-24-9.3-8.8-5.8-14.7-15.2-15.6-26.1l-55-435.7c-2.2-18.6 11-35.9 30.1-38.6h4.1v-0.1z m89.6 1h646.9V309.1h-287c-9.5 0-18.6-4.2-25.4-11.3L402.4 167.9H188.7v246.3z m702.7 64H133l46.4 378h665.5l46.5-378zM676.2 630.9H348.6c-14.7 0-26.6-11.9-26.6-26.6 0-14.7 11.9-26.6 26.6-26.6h327.6c14.7 0 26.6 11.9 26.6 26.6 0 14.7-11.9 26.6-26.6 26.6z m-75.7 122.2H424.3c-14.7 0-26.6-11.9-26.6-26.6s11.9-26.6 26.6-26.6h176.2c14.7 0 26.6 11.9 26.6 26.6s-11.9 26.6-26.6 26.6z" p-id="2508"></path></svg>