<?xml version="1.0" standalone="no"?><!DOCTYPE svg PUBLIC "-//W3C//DTD SVG 1.1//EN" "http://www.w3.org/Graphics/SVG/1.1/DTD/svg11.dtd"><svg t="1569811336378" class="icon" viewBox="0 0 1024 1024" version="1.1" xmlns="http://www.w3.org/2000/svg" p-id="2036" xmlns:xlink="http://www.w3.org/1999/xlink" width="200" height="200"><defs><style type="text/css"></style></defs><path d="M157.569 751.295c-11.004-18.683-18.218-31.22-21.805-37.908-32.943-61.425-50.43-130.18-50.43-201.387C85.333 276.359 276.358 85.333 512 85.333S938.667 276.36 938.667 512c0 235.641-191.026 426.667-426.667 426.667-78.233 0-153.448-21.117-219.125-60.498-2.586-1.55-9.313-5.496-20.063-11.767l-104.392 28.47c-23.888 6.515-45.807-15.404-39.292-39.292l28.441-104.285z m65.303 3.791l-17.265 63.307 63.307-17.265a32 32 0 0 1 24.521 3.218c17.901 10.424 28.593 16.68 32.352 18.934C381.59 856.74 445.442 874.667 512 874.667c200.295 0 362.667-162.372 362.667-362.667 0-200.295-162.372-362.667-362.667-362.667-200.295 0-362.667 162.372-362.667 362.667 0 60.587 14.847 118.96 42.832 171.139 3.704 6.906 12.919 22.817 27.37 47.224a32 32 0 0 1 3.337 24.723z m145.995-70.775c-13.59-11.298-15.446-31.474-4.147-45.064s31.475-15.446 45.064-4.147C438.313 658.82 474.1 672 512 672c37.891 0 73.67-13.174 102.196-36.884 13.592-11.297 33.767-9.437 45.064 4.154 11.297 13.591 9.437 33.767-4.154 45.064C615.19 717.51 564.975 736 512 736c-52.987 0-103.214-18.498-143.133-51.689z" p-id="2037"></path></svg>