<?xml version="1.0" standalone="no"?><!DOCTYPE svg PUBLIC "-//W3C//DTD SVG 1.1//EN" "http://www.w3.org/Graphics/SVG/1.1/DTD/svg11.dtd"><svg t="1571040057229" class="icon" viewBox="0 0 1024 1024" version="1.1" xmlns="http://www.w3.org/2000/svg" p-id="1698" xmlns:xlink="http://www.w3.org/1999/xlink" width="200" height="200"><defs><style type="text/css"></style></defs><path d="M192.63 93.97m31.26 0l321.14 0q31.26 0 31.26 31.26l0 0.01q0 31.26-31.26 31.26l-321.14 0q-31.26 0-31.26-31.26l0-0.01q0-31.26 31.26-31.26Z"  p-id="1699"></path><path d="M304.47 533.63m31.26 0l347.92 0q31.26 0 31.26 31.26l0 0.01q0 31.26-31.26 31.26l-347.92 0q-31.26 0-31.26-31.26l0-0.01q0-31.26 31.26-31.26Z" p-id="1700"></path><path d="M540.95 359.68m0 31.26l0 347.92q0 31.26-31.26 31.26l-0.01 0q-31.26 0-31.26-31.26l0-347.92q0-31.26 31.26-31.26l0.01 0q31.26 0 31.26 31.26Z"  p-id="1701"></path><path d="M808.37 315.11m0 40l0 0q0 40-40 40l-3.95 0q-40 0-40-40l0 0q0-40 40-40l3.95 0q40 0 40 40Z"  p-id="1702"></path><path d="M928.7 830.94l-1.22-544.35a96.18 96.18 0 0 0-96-95.79h-0.22l-640.2 1.44a96.2 96.2 0 0 0-95.78 96.22l1.22 544.35a96.18 96.18 0 0 0 96 95.79h0.22l415.78-0.94a32 32 0 0 0 31.93-32 32 32 0 0 0-32.07-32l-415.78 0.94h-0.07a32.2 32.2 0 0 1-32-31.93l-1.22-544.36a32.18 32.18 0 0 1 31.93-32.07l640.19-1.44h0.07a32.2 32.2 0 0 1 32 31.93l1.22 544.35a32 32 0 0 1-31.93 32.08h-0.47v0.09a32.06 32.06 0 0 0 1.64 64.07 31.69 31.69 0 0 0 4.79-0.36 96.1 96.1 0 0 0 89.97-96.02z"  p-id="1703"></path></svg>