<?xml version="1.0" standalone="no"?><!DOCTYPE svg PUBLIC "-//W3C//DTD SVG 1.1//EN" "http://www.w3.org/Graphics/SVG/1.1/DTD/svg11.dtd"><svg t="1586938598928" class="icon" viewBox="0 0 1024 1024" version="1.1" xmlns="http://www.w3.org/2000/svg" p-id="2169" xmlns:xlink="http://www.w3.org/1999/xlink" width="200" height="200"><defs><style type="text/css"></style></defs><path d="M766.7 98.2H255.6c-70.6 0-127.8 57.1-127.8 127.5V608.4c0 70.4 57.2 127.5 127.8 127.5h132.1l102 177c11.8 20.5 31.1 20.5 42.9 0l102-177h132.1c70.6 0 127.8-57.1 127.8-127.5V225.8c-0.1-70.5-57.3-127.6-127.8-127.6z m85.2 219.3v290.9c0 47-38.1 85-85.2 85H609.5l-24.6 42.5-73.8 127.5-73.8-127.5-24.6-42.5H255.6c-47 0-85.2-38.1-85.2-85V225.8c0-46.9 38.1-85 85.2-85h511.1c47 0 85.2 38.1 85.2 85v91.7z m-340.7 57.4c-23.5 0-42.6 19.2-42.6 42.8 0 23.7 19.1 42.8 42.6 42.8s42.6-19.2 42.6-42.8c-0.1-23.6-19.1-42.8-42.6-42.8z m-170.4 0c-23.5 0-42.6 19.2-42.6 42.8 0 23.7 19.1 42.8 42.6 42.8s42.6-19.2 42.6-42.8c0-23.6-19.1-42.8-42.6-42.8z m340.7 0c-23.5 0-42.6 19.2-42.6 42.8 0 23.7 19.1 42.8 42.6 42.8s42.6-19.2 42.6-42.8c0-23.6-19.1-42.8-42.6-42.8z" p-id="2170"></path></svg>