<?xml version="1.0" standalone="no"?><!DOCTYPE svg PUBLIC "-//W3C//DTD SVG 1.1//EN" "http://www.w3.org/Graphics/SVG/1.1/DTD/svg11.dtd">
<svg t="1566205505371" class="icon" viewBox="0 0 1755 1024" version="1.1" xmlns="http://www.w3.org/2000/svg" p-id="14876" xmlns:xlink="http://www.w3.org/1999/xlink" width="342.7734375" height="200"><defs><style type="text/css"></style></defs>

<path d="M241.371429 579.949714v28.16h-28.233143c-10.459429 0-15.652571 5.266286-15.652572 15.725715 0 10.386286 5.193143 15.652571 15.652572 15.652571H241.371429v28.233143c0 10.386286 5.193143 15.652571 15.652571 15.652571 8.411429 0 12.580571-5.266286 12.580571-15.652571v-28.233143h31.305143c8.411429 0 12.580571-5.266286 12.580572-15.652571 0-10.459429-4.169143-15.725714-12.580572-15.725715h-31.305143V580.022857c0-10.459429-4.169143-15.725714-12.580571-15.725714-10.459429 0-15.652571 5.266286-15.652571 15.725714z m1410.633142 59.538286V604.891429c0-12.507429-6.290286-18.797714-18.797714-18.797715-12.580571 0-18.870857 6.290286-18.870857 18.797715v34.523428H1579.885714c-10.459429 0-15.652571 6.290286-15.652571 18.797714 0 10.459429 5.193143 15.652571 15.652571 15.652572h34.450286v37.668571c0 10.386286 6.290286 15.652571 18.870857 15.652572 12.507429 0 18.797714-5.266286 18.797714-15.652572v-37.668571h34.450286c12.580571 0 18.797714-5.193143 18.797714-15.652572 0-12.507429-6.217143-18.797714-18.797714-18.797714h-34.450286zM68.973714 304.054857c-12.580571 0-18.797714 6.290286-18.797714 18.797714 0 10.459429 6.217143 15.725714 18.797714 15.725715h34.450286v37.595428c0 10.459429 6.290286 15.652571 18.797714 15.652572 10.459429 0 15.725714-5.193143 15.725715-15.652572v-37.595428H175.542857c10.459429 0 15.652571-5.266286 15.652572-15.725715 0-12.507429-5.193143-18.797714-15.652572-18.797714h-37.595428v-34.450286c0-12.580571-5.266286-18.797714-15.725715-18.797714-12.507429 0-18.797714 6.217143-18.797714 18.797714v34.450286H68.973714zM413.769143 65.828571a63.780571 63.780571 0 0 0-18.797714 47.030858v626.907428c0 18.797714 6.290286 34.523429 18.797714 47.030857 14.628571 12.580571 30.281143 18.797714 47.030857 18.797715h50.176c2.048 10.459429 7.314286 19.894857 15.652571 28.233142l9.435429 3.145143c64.731429 16.676571 100.278857 37.595429 106.569143 62.683429 6.217143 16.749714 4.169143 30.281143-6.290286 40.740571-6.290286 6.290286-4.169143 12.580571 6.290286 18.797715 8.338286 4.169143 17.773714-2.048 28.16-18.797715 4.242286-6.290286 6.290286-16.676571 6.290286-31.305143l-3.145143-18.870857c-14.628571-35.474286-56.393143-62.683429-125.366857-81.481143l-9.435429-18.797714c0-6.290286 4.242286-11.483429 12.580571-15.652571v-3.145143l18.797715-6.290286 31.378285-3.145143c33.426286 0 65.828571 5.266286 97.133715 15.725715l15.652571 6.217142 28.233143 18.797715h3.145143c81.481143 56.466286 117.028571 99.328 106.569143 128.585143-2.048 6.217143-2.048 11.483429 0 15.652571 2.121143 4.169143 7.314286 6.290286 15.652571 6.290286l12.580572-6.290286c20.918857-31.378286-5.266286-78.409143-78.409143-141.092571h279.04c-41.837714 35.547429-67.949714 68.973714-78.409143 100.352-6.217143 16.676571-6.217143 30.281143 0 40.740571l15.725714 9.362286 6.217143-3.072c8.411429-4.242286 10.459429-11.556571 6.290286-21.942857-8.338286-29.257143 27.136-72.118857 106.569143-128.585143l50.176-25.014857c35.547429-12.580571 66.852571-18.870857 94.061714-18.870858l31.305143 3.145143 9.435428 6.290286h3.145143l6.217143 3.145143v3.145143c8.411429 2.048 12.580571 7.314286 12.580571 15.652571l-6.290285 18.797714c-73.142857 18.797714-116.004571 46.006857-128.512 81.481143l6.290285 50.176c10.386286 16.749714 19.821714 22.966857 28.16 18.797715 10.459429-6.217143 12.580571-12.507429 6.290286-18.797715-10.459429-10.459429-13.604571-23.990857-9.435428-40.740571 12.580571-27.136 49.152-48.054857 109.714285-62.683429l6.290286-3.145143a54.637714 54.637714 0 0 0 15.652571-28.233142 63.780571 63.780571 0 0 0 47.030858-18.797715 63.780571 63.780571 0 0 0 18.797714-47.030857V112.859429A71.094857 71.094857 0 0 0 1419.995429 65.828571a71.094857 71.094857 0 0 0-47.030858-18.797714H460.8A63.780571 63.780571 0 0 0 413.769143 65.828571z m329.142857 266.459429c0-8.338286-4.169143-12.580571-12.507429-12.580571H523.483429c-10.459429 0-15.652571 5.266286-15.652572 15.725714 0 10.459429 5.193143 15.652571 15.652572 15.652571h6.290285c14.628571 50.176 18.797714 82.578286 12.507429 97.206857-10.459429 35.474286-15.652571 73.142857-15.652572 112.786286 0 43.885714 7.314286 75.264 21.942858 94.061714 10.459429 14.628571 9.435429 42.861714-3.145143 84.626286h-3.145143l-9.362286 9.435429-9.435428 6.290285-3.145143 3.072-3.145143 6.290286-6.217143 9.435429H460.8a30.061714 30.061714 0 0 1-21.942857-9.435429 29.769143 29.769143 0 0 1-12.507429-25.088V112.859429c0-22.966857 11.483429-34.523429 34.450286-34.523429h912.164571c23.04 0 34.523429 11.556571 34.523429 34.523429v626.907428c0 23.04-11.483429 34.523429-34.523429 34.523429 0-4.169143-3.072-9.435429-9.362285-15.725715l-12.580572-12.507428-9.362285-3.145143-3.145143-3.145143c-12.507429-41.764571-12.507429-69.997714 0-84.626286 12.507429-20.918857 19.821714-52.224 21.942857-94.061714 0-41.764571-6.290286-79.36-18.797714-112.786286-6.290286-16.749714-2.121143-49.152 12.507428-97.206857h6.290286c10.459429 0 15.652571-5.193143 15.652571-15.652571 0-10.459429-5.193143-15.725714-15.652571-15.725714h-203.776c-4.169143-10.386286-11.483429-13.531429-21.942857-9.362286-10.459429 4.169143-13.531429 10.459429-9.362286 18.797714l9.362286 9.435429c4.169143 6.217143 8.411429 9.362286 12.580571 9.362285-10.459429 50.176-6.290286 101.376 12.507429 153.6v6.290286c14.628571 41.764571 12.580571 85.650286-6.290286 131.657143-16.676571 48.054857-15.652571 86.747429 3.145143 116.004571l-31.305143 18.797715H758.491429l-31.305143-18.797715c20.918857-31.378286 21.942857-70.070857 3.145143-116.004571-18.797714-46.006857-20.918857-89.892571-6.290286-131.657143l3.145143-6.290286c16.676571-54.345143 19.821714-105.545143 9.362285-153.6 8.411429-4.169143 10.459429-9.362286 6.290286-15.652571zM564.224 351.085714h141.092571c8.338286 56.393143 5.193143 103.424-9.435428 141.092572v3.072c-18.797714 50.176-17.773714 102.4 3.145143 156.745143 16.749714 37.668571 16.749714 67.949714 0 90.916571l-3.145143-3.145143-53.248-12.507428H636.342857L614.4 724.114286h-6.290286l-18.797714 3.145143h-6.290286c6.290286-43.885714 3.145143-74.166857-9.362285-90.916572-10.459429-14.628571-15.652571-39.716571-15.652572-75.264 0-37.595429 5.193143-72.045714 15.652572-103.424 6.290286-16.676571 3.145143-52.224-9.435429-106.569143z m617.545143 0h141.092571c-16.749714 48.054857-20.918857 83.602286-12.580571 106.569143 10.459429 31.378286 15.725714 65.828571 15.725714 103.424 0 35.547429-5.266286 60.635429-15.725714 75.264-14.628571 22.966857-16.676571 53.321143-6.217143 90.916572H1294.628571l-18.797714-3.145143H1272.685714c-29.257143 0-58.514286 6.290286-87.771428 18.797714-14.628571-20.918857-14.628571-51.2 0-90.916571 18.797714-50.102857 20.918857-102.4 6.290285-156.745143l-3.145142-3.072c-16.749714-50.176-18.797714-97.206857-6.290286-141.092572z m-257.024 235.081143c-4.169143-2.048-9.435429-2.048-15.652572 0l-94.061714 47.030857-6.290286 9.435429c-2.048 6.217143-2.048 10.459429 0 12.507428 4.169143 10.459429 11.483429 12.580571 21.942858 6.290286l87.771428-43.885714 97.206857 43.885714c10.459429 6.290286 17.773714 4.169143 21.942857-6.290286 4.169143-10.459429 2.048-17.773714-6.290285-21.942857h-3.145143l-103.424-47.030857z m53.248-325.997714c-10.386286 0-15.652571 6.290286-15.652572 18.797714 0 10.459429 5.266286 15.725714 15.652572 15.725714 41.837714 0 87.771429-18.870857 137.947428-56.466285l9.435429-6.290286c8.338286-6.217143 10.459429-13.531429 6.217143-21.942857-8.338286-8.338286-15.652571-10.386286-21.942857-6.217143L1097.142857 213.138286c-43.885714 31.378286-83.602286 47.030857-119.149714 47.030857z m-260.169143-28.233143l9.435429 6.290286c50.176 37.595429 97.133714 56.466286 141.019428 56.466285 10.459429 0 15.725714-5.266286 15.725714-15.725714v-3.145143c0-10.386286-5.266286-15.652571-15.725714-15.652571-37.595429 0-78.336-15.652571-122.221714-47.030857l-9.435429-9.362286c-10.386286-4.169143-17.700571-2.121143-21.942857 6.217143-6.217143 6.290286-5.193143 13.604571 3.145143 21.942857z"  p-id="14877"></path></svg>