<?xml version="1.0" standalone="no"?><!DOCTYPE svg PUBLIC "-//W3C//DTD SVG 1.1//EN" "http://www.w3.org/Graphics/SVG/1.1/DTD/svg11.dtd"><svg t="1569468672777" class="icon" viewBox="0 0 1024 1024" version="1.1" xmlns="http://www.w3.org/2000/svg" p-id="1429" xmlns:xlink="http://www.w3.org/1999/xlink" width="200" height="200"><defs><style type="text/css"></style></defs><path d="M362.3 705.3c-5.3 0-10.6-1.3-15.4-3.9-10.3-5.6-16.6-16.4-16.6-28.1V293.7c0-11.6 6.3-22.4 16.5-28 10.2-5.6 22.6-5.3 32.5 0.9l300 187.6c9.3 5.8 15 16 15 27 0.1 11-5.5 21.2-14.7 27.1l-300 192.1c-5.3 3.2-11.3 4.9-17.3 4.9z m32-353.8v263.4l208.1-133.3-208.1-130.1z" p-id="1430"></path><path d="M64 140v807.6c0 6.6 5.4 12 12 12h872.3c6.6 0 12-5.4 12-12V140c0-6.6-5.4-12-12-12H76c-6.6 0-12 5.4-12 12z m832.4 58v563.8c0 3.3-2.7 6-6 6H774.1c-3.3 0-6-2.7-6-6v-22.9c0-3.3-2.7-6-6-6h-116c-3.3 0-6 2.7-6 6v22.9c0 3.3-2.7 6-6 6H134c-3.3 0-6-2.7-6-6V198c0-3.3 2.7-6 6-6h756.3c3.4 0 6.1 2.7 6.1 6zM128 889.6v-51.8c0-3.3 2.7-6 6-6h500.1c3.3 0 6 2.7 6 6v17.1c0 3.3 2.7 6 6 6h116c3.3 0 6-2.7 6-6v-17.1c0-3.3 2.7-6 6-6h116.2c3.3 0 6 2.7 6 6v51.8c0 3.3-2.7 6-6 6H134c-3.3 0-6-2.7-6-6z" p-id="1431"></path></svg>