<?xml version="1.0" standalone="no"?><!DOCTYPE svg PUBLIC "-//W3C//DTD SVG 1.1//EN" "http://www.w3.org/Graphics/SVG/1.1/DTD/svg11.dtd"><svg t="1567480402904" class="icon" viewBox="0 0 1024 1024" version="1.1" xmlns="http://www.w3.org/2000/svg" p-id="9878" xmlns:xlink="http://www.w3.org/1999/xlink" width="200" height="200"><defs><style type="text/css"></style></defs><path d="M787.000888888889 782.7911111111111H109.68177777777777c-59.27822222222222 0-107.40622222222223-49.94844444444445-107.40622222222223-111.50222222222222V225.27999999999997c0-61.55377777777778 48.128-111.50222222222222 107.40622222222223-111.50222222222222h677.3191111111109c59.27822222222222 0 107.40622222222223 49.94844444444445 107.40622222222223 111.50222222222222v446.00888888888886c-0.11377777777777778 61.55377777777778-48.128 111.50222222222222-107.40622222222223 111.50222222222222zM283.0791111111111 180.67911111111113c-45.62488888888889 0-82.60266666666666 37.43288888888889-82.60266666666666 83.62666666666667s36.977777777777774 83.62666666666667 82.60266666666666 83.62666666666667c45.62488888888889 0 82.60266666666666-37.43288888888889 82.60266666666666-83.62666666666667s-36.977777777777774-83.62666666666667-82.60266666666666-83.62666666666667z m545.1093333333333 158.2648888888889c0-31.971555555555554-15.473777777777777-63.37422222222222-58.48177777777777-58.026666666666664-42.894222222222226 5.461333333333333-175.33155555555555 186.368-292.29511111111105 289.9057777777778-67.69777777777777-48.128-155.1928888888889-102.85511111111111-175.33155555555555-115.93955555555556-19.342222222222222-12.629333333333333-32.88177777777778-28.444444444444446-58.48177777777777 0 0 0-171.6906666666667 171.23555555555555-175.33155555555555 202.97955555555558-3.640888888888889 31.743999999999996 26.168888888888887 58.026666666666664 58.48177777777777 58.026666666666664h642.9582222222222c32.312888888888885 0 58.48177777777777-25.941333333333333 58.48177777777777-58.026666666666664V338.94399999999996z" p-id="9879"></path><path d="M894.2933333333333 910.2222222222222H257.1377777777778c-59.27822222222222 0-108.65777777777777-8.874666666666666-122.88-63.715555555555554h728.1777777777777c70.42844444444445 0 95.57333333333332-25.14488888888889 95.57333333333332-95.57333333333332V245.6462222222222c54.84088888888889 14.222222222222223 63.715555555555554 63.60177777777778 63.715555555555554 122.99377777777777v414.1511111111111c0 70.42844444444445-57.00266666666666 127.43111111111111-127.43111111111111 127.43111111111111z" p-id="9880"></path></svg>