<?xml version="1.0" standalone="no"?><!DOCTYPE svg PUBLIC "-//W3C//DTD SVG 1.1//EN" "http://www.w3.org/Graphics/SVG/1.1/DTD/svg11.dtd"><svg t="1567480410566" class="icon" viewBox="0 0 1024 1024" version="1.1" xmlns="http://www.w3.org/2000/svg" p-id="10137" xmlns:xlink="http://www.w3.org/1999/xlink" width="200" height="200"><defs><style type="text/css"></style></defs><path d="M565.322951 148.765185c-20.169365 0-36.508495 16.360619-36.508495 36.443004 0 20.146852 16.33913 36.46654 36.508495 36.46654 20.146852 0 36.485983-16.318664 36.485983-36.46654C601.808934 165.125805 585.469803 148.765185 565.322951 148.765185z" p-id="10138"></path><path d="M390.116557 177.916109c-20.167319 0-36.509519 16.341177-36.509519 36.46654s16.3422 36.423561 36.509519 36.423561c20.146852 0 36.485983-16.297175 36.485983-36.423561S410.263409 177.916109 390.116557 177.916109z" p-id="10139"></path><path d="M258.712785 309.085544c-20.169365 0-36.508495 16.340153-36.508495 36.44505 0 20.103874 16.33913 36.44198 36.508495 36.44198 20.146852 0 36.487006-16.33913 36.487006-36.44198C295.199791 325.425697 278.859637 309.085544 258.712785 309.085544z" p-id="10140"></path><path d="M756.824473 600.918145c-17.450441 10.050913-23.437805 32.313963-13.366426 49.76645 10.07445 17.410532 32.401967 23.378453 49.854455 13.346983 17.472953-10.093892 23.440875-32.383548 13.367449-49.78794C796.605501 596.811618 774.275937 590.843696 756.824473 600.918145z" p-id="10141"></path><path d="M528.814456 46.789653c-241.912655 0-438.013939 195.71652-438.013939 437.158455l0 29.150924c0 0 197.918675 0 267.834025 0L499.61953 921.107585l29.194926 0c241.912655 0 438.013939-195.717544 438.013939-437.159478S770.728134 46.789653 528.814456 46.789653zM258.712785 411.061077c-36.294624 0-65.703421-29.322839-65.703421-65.531506 0-36.1882 29.407774-65.596997 65.703421-65.596997 36.273135 0 65.701374 29.407774 65.701374 65.596997C324.413136 381.739261 294.98592 411.061077 258.712785 411.061077zM390.116557 279.93462c-36.295648 0-65.703421-29.321816-65.703421-65.552995 0-36.20969 29.40675-65.61644 65.703421-65.61644 36.272112 0 65.703421 29.40675 65.703421 65.61644C455.817931 250.612805 426.388668 279.93462 390.116557 279.93462zM565.322951 250.805186c-36.294624 0-65.703421-29.364795-65.703421-65.596997 0-36.229133 29.408797-65.573461 65.703421-65.573461 36.271088 0 65.701374 29.344329 65.701374 65.573461C631.024326 221.440391 601.595063 250.805186 565.322951 250.805186zM660.218228 272.661983c0-36.20969 29.407774-65.595974 65.702398-65.595974 36.295648 0 65.701374 29.386284 65.701374 65.595974 0 36.230156-29.40675 65.595974-65.701374 65.595974S660.218228 308.893162 660.218228 272.661983zM807.919175 689.227424c-31.417547 18.113543-71.606875 7.399527-89.741907-23.976064-18.156522-31.374568-7.377014-71.498404 24.040533-89.572038 31.44006-18.114566 71.604828-7.355525 89.763396 23.976064C850.117253 631.010511 839.359234 671.151743 807.919175 689.227424zM813.523823 513.099031c-36.295648 0-65.702398-29.364795-65.702398-65.552995 0-36.228109 29.40675-65.574484 65.702398-65.574484 36.293601 0 65.702398 29.346375 65.702398 65.574484C879.226221 483.735259 849.817424 513.099031 813.523823 513.099031z" p-id="10142"></path><path d="M813.523823 411.061077c-20.167319 0-36.508495 16.359596-36.508495 36.484959 0 20.103874 16.341177 36.401048 36.508495 36.401048 20.146852 0 36.507472-16.298198 36.507472-36.401048C850.031295 427.421696 833.669652 411.061077 813.523823 411.061077z" p-id="10143"></path><path d="M762.428098 272.663006c-0.002047-20.125363-16.340153-36.423561-36.507472-36.423561-20.168342 0-36.508495 16.298198-36.508495 36.423561s16.340153 36.422538 36.508495 36.422538C746.087944 309.085544 762.428098 292.788369 762.428098 272.663006z" p-id="10144"></path></svg>