<?xml version="1.0" standalone="no"?><!DOCTYPE svg PUBLIC "-//W3C//DTD SVG 1.1//EN" "http://www.w3.org/Graphics/SVG/1.1/DTD/svg11.dtd"><svg t="1566216860669" class="icon" viewBox="0 0 1024 1024" version="1.1" xmlns="http://www.w3.org/2000/svg" p-id="1359" xmlns:xlink="http://www.w3.org/1999/xlink" width="200" height="200"><defs><style type="text/css"></style></defs><path d="M356.821333 309.12h367.189334l-125.312 125.184a37.674667 37.674667 0 0 0 26.837333 64.512 37.973333 37.973333 0 0 0 26.794667-11.050667l187.818666-187.477333a38.058667 38.058667 0 0 0 0-53.546667L646.784 53.76a37.845333 37.845333 0 1 0-53.546667 53.461333l126.464 126.293334H356.821333a312.448 312.448 0 0 0-222.208 91.861333A311.765333 311.765333 0 0 0 42.666667 547.242667c0 20.906667 16.938667 37.802667 37.888 37.802666 20.906667 0 37.845333-16.938667 37.845333-37.802666 0-63.573333 24.832-123.434667 69.888-168.405334a237.056 237.056 0 0 1 168.533333-69.717333zM943.36 439.04a37.802667 37.802667 0 0 0-37.888 37.802667c0 63.573333-24.832 123.434667-69.845333 168.362666a237.098667 237.098667 0 0 1-168.661334 69.76H299.776l125.44-125.184A37.845333 37.845333 0 1 0 371.626667 536.32l-187.818667 187.477333a38.058667 38.058667 0 0 0 0 53.546667l193.28 192.981333c7.338667 7.338667 17.066667 11.008 26.837333 11.008a37.674667 37.674667 0 0 0 26.837334-64.512L304.213333 790.485333h362.88a312.448 312.448 0 0 0 222.165334-91.904 311.424 311.424 0 0 0 92.074666-221.866666 37.973333 37.973333 0 0 0-37.973333-37.674667z"  p-id="1360"></path></svg>