<?xml version="1.0" standalone="no"?><!DOCTYPE svg PUBLIC "-//W3C//DTD SVG 1.1//EN" "http://www.w3.org/Graphics/SVG/1.1/DTD/svg11.dtd"><svg t="1566381244576" class="icon" viewBox="0 0 1024 1024" version="1.1" xmlns="http://www.w3.org/2000/svg" p-id="1449" xmlns:xlink="http://www.w3.org/1999/xlink" width="200" height="200"><defs><style type="text/css"></style></defs><path d="M534.98666667 874.92693333L614.4 546.13333333 512 443.73333333 409.6 546.13333333 489.01333333 874.92693333 307.11893333 512C170.66666667 512 102.4 603.7184 102.4 716.8L102.4 989.86666667 921.6 989.86666667 921.6 716.8C921.6 603.7184 853.33333333 512 716.8832 512L534.98666667 874.92693333ZM307.2 238.93333333C307.2 125.824 398.8928 34.13333333 512 34.13333333 625.1072 34.13333333 716.8 125.824 716.8 238.93333333 716.8 352.04053333 625.1072 443.73333333 512 443.73333333 398.8928 443.73333333 307.2 352.04053333 307.2 238.93333333" p-id="1450"></path></svg>