<?xml version="1.0" standalone="no"?><!DOCTYPE svg PUBLIC "-//W3C//DTD SVG 1.1//EN" "http://www.w3.org/Graphics/SVG/1.1/DTD/svg11.dtd"><svg t="1567480341300" class="icon" viewBox="0 0 1024 1024" version="1.1" xmlns="http://www.w3.org/2000/svg" p-id="9113" xmlns:xlink="http://www.w3.org/1999/xlink" width="200" height="200"><defs><style type="text/css"></style></defs><path d="M662.3 444.6c-24.7 0-44.8-20.1-44.8-44.8 0-58.7-47.6-106.3-106.3-106.3-58.7 0-106.3 47.6-106.3 106.3 0 16-8.5 30.8-22.4 38.8-13.9 8-30.9 8-44.8 0-13.9-8-22.4-22.8-22.4-38.8 0-108.2 87.7-195.9 195.9-195.9s195.9 87.7 195.9 195.9c0 24.7-20.1 44.8-44.8 44.8z m0 0" p-id="9114"></path><path d="M799.4 444.6c-24.7 0-44.8-20.1-44.8-44.8 0-134.5-109-243.5-243.5-243.5s-243.5 109-243.5 243.5c-0.1 24.6-20.1 44.6-44.8 44.6-24.7 0-44.7-19.9-44.8-44.6 0-183.9 149.1-333 333-333s333 149.1 333 333c0.2 24.7-19.8 44.8-44.6 44.8z m0 0" p-id="9115"></path><path d="M904.4 598.5h-347V444.6c0-24.7-20-44.8-44.8-44.8-24.7 0-44.8 20-44.8 44.8v153.9h-347c-30.9 0-56 25.1-56 56V905c0 30.9 25.1 56 56 56h783.6c30.9 0 56-25.1 56-56V654.5c0-14.8-5.9-29.1-16.4-39.6a56.099 56.099 0 0 0-39.6-16.4z m-701.6 226c-18.1 0-34.4-10.9-41.4-27.6-6.9-16.7-3.1-36 9.7-48.8 12.8-12.8 32.1-16.6 48.8-9.7 16.7 6.9 27.6 23.3 27.6 41.4 0.1 24.6-19.9 44.7-44.7 44.7z m135.7 0c-18.1 0-34.4-10.9-41.4-27.6-6.9-16.7-3.1-36 9.7-48.8 12.8-12.8 32.1-16.6 48.8-9.7 16.7 6.9 27.6 23.3 27.6 41.4 0.1 24.6-19.9 44.7-44.7 44.7z m0 0" p-id="9116"></path></svg>