<?xml version="1.0" standalone="no"?><!DOCTYPE svg PUBLIC "-//W3C//DTD SVG 1.1//EN" "http://www.w3.org/Graphics/SVG/1.1/DTD/svg11.dtd"><svg t="1577174727965" class="icon" viewBox="0 0 1024 1024" version="1.1" xmlns="http://www.w3.org/2000/svg" p-id="1916" xmlns:xlink="http://www.w3.org/1999/xlink" width="200" height="200"><defs><style type="text/css"></style></defs><path d="M127.309036 813.307718V717.30069h172.815018v-66.285212H61.023824v228.577452h835.66714v78.121858H248.042815v66.285212h714.933361v-210.692282H127.309036z" p-id="1917"></path><path d="M344.973102 631.3193c31.639352 36.6936 67.77663 71.599866 101.795147 98.173134 54.164488 42.351516 74.274948 42.351516 81.838564 42.351516 6.912601 0 27.922646 0 81.95693-41.511114 34.101374-26.194495 70.285998-60.698316 101.878004-97.155182C751.928795 587.559224 783.674677 540.212643 806.732462 492.404434c28.289582-58.591393 42.611922-116.330548 42.611922-171.631353a320.773081 320.773081 0 0 0-641.546162 0c0 54.235508 14.405197 111.335483 42.801309 169.713817 23.045948 47.55964 54.82734 94.929893 94.373571 140.832402zM528.571303 66.285212c140.358937 0 254.487869 114.188115 254.487869 254.487869 0 103.629827-62.05953 199.187063-114.105259 261.104553-60.36689 71.741906-121.112552 114.413011-140.252407 122.698663-19.080672-8.581568-79.838171-52.081238-140.512813-124.758239C314.588434 491.706072 274.083434 399.711667 274.083434 320.773081c0-140.299754 114.128932-254.487869 254.487869-254.487869z" p-id="1918"></path><path d="M528.571303 441.270127a129.776976 129.776976 0 1 0-129.788813-129.776976A129.930853 129.930853 0 0 0 528.571303 441.270127z m0-193.26874a63.491764 63.491764 0 1 1-63.491764 63.491764A63.574621 63.574621 0 0 1 528.571303 248.001387z" p-id="1919"></path></svg>