<?xml version="1.0" standalone="no"?><!DOCTYPE svg PUBLIC "-//W3C//DTD SVG 1.1//EN" "http://www.w3.org/Graphics/SVG/1.1/DTD/svg11.dtd"><svg t="1566380995279" class="icon" viewBox="0 0 1024 1024" version="1.1" xmlns="http://www.w3.org/2000/svg" p-id="4561" xmlns:xlink="http://www.w3.org/1999/xlink" width="200" height="200"><defs><style type="text/css"></style></defs><path d="M660.992 146.432c-36.352 0-65.536 8.192-88.576 22.528 22.528 32.768 33.792 77.312 33.792 130.048 0 59.904-22.016 113.664-54.784 152.576 29.184 37.376 69.632 60.416 110.08 60.416 77.312 0 154.624-86.016 154.624-192s-48.64-173.568-155.136-173.568z" p-id="4562"></path><path d="M399.36 511.488c86.016 0 171.52-95.744 171.52-213.504S517.12 104.96 399.36 104.96 227.84 181.248 227.84 299.008 313.344 511.488 399.36 511.488z m-117.76 64.512l103.424 89.088c8.192 6.656 19.968 6.656 27.648 0l103.424-89.088c-37.888-13.824-77.312-20.992-117.76-21.504-38.912 0.512-78.848 7.68-116.736 21.504z" p-id="4563"></path><path d="M561.152 593.92l-118.784 102.912c-24.064 20.48-59.392 20.48-83.456 0L238.592 593.92c-121.344 58.368-203.776 166.912-203.776 217.6 0 71.168 163.328 107.008 364.544 107.008s364.544-36.352 364.544-107.008c0-50.176-82.944-158.72-202.752-217.6zM692.224 634.368l74.752-64.512c-33.792-12.288-69.632-18.944-105.984-19.456-24.064 0.512-48.64 3.584-71.68 9.216 39.424 21.504 74.24 47.616 102.912 74.752z" p-id="4564"></path><path d="M806.912 586.24l-87.04 75.264c58.368 52.736 94.208 110.592 94.208 143.872 0 25.6-20.992 46.592-57.856 62.976-5.12 2.56-10.24 5.12-15.872 7.68 143.36-8.192 249.344-39.936 249.344-94.208-0.512-45.056-74.752-142.848-182.784-195.584z" p-id="4565"></path></svg>