<?xml version="1.0" standalone="no"?><!DOCTYPE svg PUBLIC "-//W3C//DTD SVG 1.1//EN" "http://www.w3.org/Graphics/SVG/1.1/DTD/svg11.dtd"><svg t="1566371394646" class="icon" viewBox="0 0 1024 1024" version="1.1" xmlns="http://www.w3.org/2000/svg" p-id="1419" xmlns:xlink="http://www.w3.org/1999/xlink" width="200" height="200"><defs><style type="text/css"></style></defs><path d="M213.333 426.667c-25.6 0-42.666-17.067-42.666-42.667 0-166.4 132.266-298.667 298.666-298.667 128 0 243.2 85.334 285.867 209.067 4.267 21.333-4.267 46.933-29.867 51.2-21.333 8.533-46.933-4.267-55.466-25.6-25.6-89.6-106.667-149.333-200.534-149.333C349.867 170.667 256 264.533 256 384c0 25.6-17.067 42.667-42.667 42.667zM768 768c-25.6 0-42.667-17.067-42.667-42.667S742.4 682.667 768 682.667c93.867 0 170.667-76.8 170.667-170.667S861.867 341.333 768 341.333c-12.8 0-29.867 0-42.667 4.267-21.333 4.267-46.933-8.533-51.2-29.867s8.534-46.933 29.867-51.2c21.333-4.266 42.667-8.533 64-8.533 140.8 0 256 115.2 256 256S908.8 768 768 768z m-426.667 0h-128c-25.6 0-42.666-17.067-42.666-42.667s17.066-42.666 42.666-42.666h128c25.6 0 42.667 17.066 42.667 42.666S366.933 768 341.333 768zM768 768h-85.333c-25.6 0-42.667-17.067-42.667-42.667s17.067-42.666 42.667-42.666H768c25.6 0 42.667 17.066 42.667 42.666S793.6 768 768 768z m-554.667 0C93.867 768 0 674.133 0 554.667s93.867-213.334 213.333-213.334C238.933 341.333 256 358.4 256 384s-17.067 42.667-42.667 42.667c-72.533 0-128 55.466-128 128s55.467 128 128 128c25.6 0 42.667 17.066 42.667 42.666S238.933 768 213.333 768zM512 938.667c-25.6 0-42.667-17.067-42.667-42.667V469.333c0-25.6 17.067-42.666 42.667-42.666s42.667 17.066 42.667 42.666V896c0 25.6-17.067 42.667-42.667 42.667zM384 640c-12.8 0-21.333-4.267-29.867-12.8-17.066-17.067-17.066-42.667 0-59.733l128-128c17.067-17.067 42.667-17.067 59.734 0s17.066 42.666 0 59.733l-128 128C405.333 635.733 396.8 640 384 640z m256 0c-12.8 0-21.333-4.267-29.867-12.8l-128-128c-17.066-17.067-17.066-42.667 0-59.733s42.667-17.067 59.734 0l128 128c17.066 17.066 17.066 42.666 0 59.733C661.333 635.733 652.8 640 640 640z"   p-id="1420"></path></svg>