<?xml version="1.0" standalone="no"?><!DOCTYPE svg PUBLIC "-//W3C//DTD SVG 1.1//EN" "http://www.w3.org/Graphics/SVG/1.1/DTD/svg11.dtd"><svg t="1567480395189" class="icon" viewBox="0 0 1024 1024" version="1.1" xmlns="http://www.w3.org/2000/svg" p-id="9624" xmlns:xlink="http://www.w3.org/1999/xlink" width="200" height="200"><defs><style type="text/css"></style></defs><path d="M511.996 584.712c75.946 0 137.73-61.805 137.73-137.764 0-75.964-61.784-137.763-137.73-137.763-75.939 0-137.723 61.8-137.723 137.763 0 75.96 61.784 137.764 137.723 137.764z m0-216.487c43.398 0 78.704 35.316 78.704 78.722 0 43.407-35.307 78.722-78.704 78.722-43.394 0-78.698-35.315-78.698-78.722 0-43.406 35.304-78.722 78.698-78.722z" p-id="9625"></path><path d="M850.202 879.18c-59.138-49.667-128.3-85.367-202.061-105.133 0.572-0.238 1.149-0.461 1.72-0.703 42.18-17.845 80.047-43.378 112.56-75.901 32.513-32.524 58.043-70.4 75.883-112.597 18.479-43.695 27.845-90.09 27.845-137.899s-9.366-94.203-27.845-137.903c-17.84-42.191-43.369-80.073-75.884-112.587-32.513-32.523-70.38-58.066-112.56-75.906-43.68-18.484-90.064-27.854-137.86-27.854s-94.176 9.37-137.86 27.854c-42.176 17.84-80.047 43.383-112.56 75.906-32.51 32.515-58.043 70.396-75.882 112.587-18.476 43.7-27.845 90.095-27.845 137.903s9.369 94.204 27.845 137.9c17.84 42.195 43.371 80.072 75.883 112.596 32.513 32.523 70.383 58.056 112.56 75.901 0.59 0.25 1.185 0.48 1.776 0.726-71.15 19.068-138.093 52.933-195.73 99.805-12.642 10.282-14.563 28.887-4.284 41.533 10.28 12.626 28.86 14.53 41.52 4.285C300.33 852.272 404.95 815.14 512 815.14c109.72 0 216.347 38.804 300.254 109.243a29.351 29.351 0 0 0 18.955 6.919c8.425 0 16.783-3.594 22.624-10.532 10.481-12.493 8.857-31.116-3.631-41.59zM303.318 655.694c-27.117-27.124-48.4-58.701-63.26-93.848-15.383-36.377-23.183-75.037-23.183-114.898s7.801-78.52 23.183-114.907c14.863-35.147 36.144-66.72 63.258-93.833 27.118-27.128 58.68-48.417 93.818-63.279 36.364-15.385 75.01-23.188 114.864-23.188 39.858 0 78.504 7.803 114.874 23.193 35.13 14.857 66.691 36.146 93.817 63.28 27.106 27.108 48.388 58.676 63.253 93.832 15.382 36.378 23.182 75.037 23.182 114.903s-7.8 78.526-23.183 114.903c-14.86 35.148-36.144 66.72-63.258 93.844-27.108 27.118-58.671 48.403-93.814 63.275-36.374 15.385-75.022 23.188-114.871 23.188-39.845 0-78.493-7.803-114.866-23.188-35.146-14.874-66.71-36.164-93.814-63.277z" p-id="9626"></path></svg>