<?xml version="1.0" standalone="no"?><!DOCTYPE svg PUBLIC "-//W3C//DTD SVG 1.1//EN" "http://www.w3.org/Graphics/SVG/1.1/DTD/svg11.dtd"><svg class="icon" width="200px" height="199.80px" viewBox="0 0 1025 1024" version="1.1" xmlns="http://www.w3.org/2000/svg"><path  d="M371.440105 668.977584c-31.229733 6.158552-67.12392 6.99054-67.12392 6.99054 5.487231-24.301618 10.11382-52.483799 29.815456-72.819915l98.854074-19.330158L371.440105 668.977584 371.440105 668.977584zM340.60641 288.803142l38.786189 3.068019 0.275283 9.618516-49.043279 0 0 1.008005c0 37.823211-30.776387 68.525917-68.714214 68.525917-37.943967 0-68.719331-30.702705-68.719331-68.525917 0-1.709003 0.064471-3.462011 0.194438-5.172038l-13.915585 0c3.527506-41.680237 38.513976-74.353925 81.146957-74.353925C300.318959 222.972743 333.374358 251.308428 340.60641 288.803142L340.60641 288.803142zM64.425332 570.935031l10.716577 324.048521 127.057746 0 0-36.486709-51.857506-6.332523 40.536126-263.108737 65.973669-78.518981 66.880361 31.423147 71.571422 8.897051c-36.958476 9.290019-71.946993 20.246061-105.832334 33.529213l-45.06652 118.290661-29.949516 4.252041 17.631388 117.350197 174.204747-0.132013c5.26107 7.122553 11.02256 13.84702 17.290611 20.0506 31.236897 31.227687 74.385649 50.446299 122.059678 50.446299 47.661749 0 90.822782-19.218612 122.051492-50.446299 6.332523-6.266004 12.182021-13.06006 17.443091-20.291089l274.310384-0.220021L959.446749 501.071589l-43.939806 0.504514c16.087145-9.555068 30.332251-18.210607 43.939806-26.473178l0-82.099701L791.022936 496.316057c-89.760539-132.53679-198.341605-260.083699-331.569159-369.217377-6.06952 3.463034-12.151321 6.926069-18.209584 10.387056l258.504662 367.991397c-90.243563 8.215496-168.033915 17.375549-238.117378 30.76513l2.750779-14.879586-120.341465-40.060266-105.211157-92.071275-102.249567-2.367021L64.425332 570.935031 64.425332 570.935031zM604.515411 663.718561c15.065837 15.075047 24.388603 35.851206 24.388603 58.775388 0 22.963069-9.322767 43.717738-24.388603 58.729337-15.068907 14.988062-35.881906 24.345622-58.871583 24.345622-23.000933 0-43.81291-9.359607-58.88284-24.345622-15.065837-15.011599-24.39065-35.762174-24.39065-58.729337 0-22.921112 9.324813-43.696247 24.39065-58.775388 15.06993-14.988062 35.881906-24.283198 58.88284-24.283198C568.633505 639.435364 589.448551 648.729476 604.515411 663.718561z" /></svg>