<?xml version="1.0" standalone="no"?><!DOCTYPE svg PUBLIC "-//W3C//DTD SVG 1.1//EN" "http://www.w3.org/Graphics/SVG/1.1/DTD/svg11.dtd"><svg class="icon" width="200px" height="200.00px" viewBox="0 0 1024 1024" version="1.1" xmlns="http://www.w3.org/2000/svg"><path  d="M831.937316 825.418217H191.059745a40.117532 40.117532 0 0 1-40.117531-40.117531V533.563173a361.057786 361.057786 0 1 1 721.112634 0v251.737513a40.117532 40.117532 0 0 1-40.117532 40.117531z m-600.760039-80.235063h560.642508V533.563173c0-154.452498-125.367287-280.822723-280.822723-280.822722S231.177277 378.107738 231.177277 533.563173zM872.054848 1024H151.945152a94.2762 94.2762 0 0 1 0-188.5524h720.109696a94.2762 94.2762 0 0 1 0 188.5524zM151.945152 915.682664a14.041136 14.041136 0 0 0 0 28.082272h720.109696a14.041136 14.041136 0 0 0 0-28.082272zM512 158.464251a40.117532 40.117532 0 0 1-40.117532-40.117532V40.117532a40.117532 40.117532 0 0 1 80.235064 0v78.229187a40.117532 40.117532 0 0 1-40.117532 40.117532zM701.555338 195.572968a40.117532 40.117532 0 0 1-35.10284-59.17336l37.108716-69.202742a40.38331 40.38331 0 1 1 71.208619 38.111655l-37.108716 69.202742a40.117532 40.117532 0 0 1-36.105779 21.061705zM841.966699 313.919687a40.117532 40.117532 0 0 1-29.08521-67.196866l53.155729-57.167483a40.117532 40.117532 0 0 1 59.17336 54.158668l-53.15573 57.167483a40.117532 40.117532 0 0 1-30.088149 13.038198zM323.4476 195.572968a40.117532 40.117532 0 0 1-35.10284-21.061705l-37.108717-69.202742a40.38331 40.38331 0 0 1 71.208619-38.111655l37.108717 69.202742a40.117532 40.117532 0 0 1-35.10284 59.17336zM182.033301 313.919687a40.117532 40.117532 0 0 1-29.085211-13.038198l-53.15573-57.167483a40.117532 40.117532 0 0 1 59.17336-54.158668l53.15573 57.167483a40.117532 40.117532 0 0 1-29.085211 67.196866zM438.785504 726.127326a40.117532 40.117532 0 0 1-28.082272-68.199804l134.393732-135.39667H381.618022a40.117532 40.117532 0 0 1-28.082273-68.199804l153.44956-153.449559a40.423428 40.423428 0 0 1 57.167482 57.167483l-85.249755 85.249755h162.476004a40.117532 40.117532 0 0 1 28.082272 68.199804L466.867777 714.092067a40.117532 40.117532 0 0 1-28.082273 12.035259z" /></svg>