<?xml version="1.0" standalone="no"?><!DOCTYPE svg PUBLIC "-//W3C//DTD SVG 1.1//EN" "http://www.w3.org/Graphics/SVG/1.1/DTD/svg11.dtd"><svg class="icon" width="200px" height="200.00px" viewBox="0 0 1024 1024" version="1.1" xmlns="http://www.w3.org/2000/svg"><path  d="M350.29 415l95.39 95.39C374.17 582.68 297.23 660.61 279.5 679a35.73 35.73 0 0 0-3.86 50.53 37 37 0 0 0 53.1 9.33 35.21 35.21 0 0 0 7.08-6.76c17.48-17.48 93.7-94.56 164.9-166.69L553 617.77a56.25 56.25 0 0 0 5.17 73.59l100.4 100.36a56.25 56.25 0 0 0 79.55 0l26.7-26.7a56.25 56.25 0 0 0 0-79.55L664.44 585.1a56.25 56.25 0 0 0-73.59-5.17l-52.56-52.56c44.5-45.12 81.79-83 93.46-95h-0.65a16.42 16.42 0 0 1 20.6-5.79 114.25 114.25 0 0 0 135.5-43.15 104.61 104.61 0 0 0 15.13-94.62c-15.13 12.88-28 27.68-41.52 41.2a58.67 58.67 0 0 1-86.89-78.85l4.83-2.25c13.84-13.52 28-26.71 41.84-39.9l-2.9-4.83a114.91 114.91 0 0 0-109.75 32.18 111 111 0 0 0-26.07 118.11 20 20 0 0 1-6.11 24.78c-11.48 11.48-48.31 48.6-92.43 93.15l-95.2-95.2 22-22-131.75-106.75-56.84 56.84L328.29 437z m-42.47 305.24a18.35 18.35 0 0 1-17.7-17.7 18.52 18.52 0 1 1 17.7 17.7zM69.5 70.52v891.67h891.67V70.52z m827.67 827.67H133.5V134.52h763.67z" /></svg>