<?xml version="1.0" standalone="no"?><!DOCTYPE svg PUBLIC "-//W3C//DTD SVG 1.1//EN" "http://www.w3.org/Graphics/SVG/1.1/DTD/svg11.dtd"><svg class="icon" width="200px" height="200.00px" viewBox="0 0 1024 1024" version="1.1" xmlns="http://www.w3.org/2000/svg"><path  d="M1006.933333 821.333333L584.533333 87.466667c-23.466667-40.533333-72.533333-53.333333-113.066666-32-12.8 6.4-23.466667 19.2-32 32L17.066667 821.333333c-23.466667 40.533333-10.666667 89.6 29.866666 113.066667 12.8 8.533333 27.733333 10.666667 42.666667 10.666667h846.933333c44.8 0 83.2-36.266667 83.2-83.2 0-12.8-4.266667-27.733333-12.8-40.533334z m-36.266666 66.133334c-2.133333 2.133333-4.266667 4.266667-6.4 4.266666H59.733333c-4.266667 0-6.4-2.133333-6.4-6.4 0-2.133333 0-4.266667 2.133334-4.266666L505.6 106.666667c2.133333-2.133333 6.4-4.266667 8.533333-2.133334 2.133333 0 2.133333 2.133333 2.133334 2.133334l454.4 774.4v6.4zM480 768c0 17.066667 14.933333 32 32 32s32-14.933333 32-32-14.933333-32-32-32-32 12.8-32 32zM512 667.733333c-14.933333 0-25.6-10.666667-25.6-25.6V315.733333c0-14.933333 10.666667-25.6 25.6-25.6s25.6 10.666667 25.6 25.6v326.4c0 12.8-10.666667 25.6-25.6 25.6z" /></svg>