<?xml version="1.0" standalone="no"?><!DOCTYPE svg PUBLIC "-//W3C//DTD SVG 1.1//EN" "http://www.w3.org/Graphics/SVG/1.1/DTD/svg11.dtd"><svg class="icon" width="200px" height="200.00px" viewBox="0 0 1024 1024" version="1.1" xmlns="http://www.w3.org/2000/svg"><path  d="M590.769231 905.846154H433.230769v-78.769231c0-43.323077 35.446154-78.769231 78.769231-78.769231s78.769231 35.446154 78.769231 78.769231v78.769231zM590.769231 937.353846H433.230769c-17.329231 0-31.507692-14.178462-31.507692-31.507692v-78.769231c0-60.652308 49.624615-110.276923 110.276923-110.276923s110.276923 49.624615 110.276923 110.276923v78.769231c0 17.329231-14.178462 31.507692-31.507692 31.507692z m-126.030769-63.015384h94.523076v-47.261539c0-25.993846-21.267692-47.261538-47.261538-47.261538s-47.261538 21.267692-47.261538 47.261538v47.261539zM827.076923 937.353846H196.923077c-17.329231 0-31.507692-14.178462-31.507692-31.507692V669.538462c0-17.329231 14.178462-31.507692 31.507692-31.507693h630.153846c17.329231 0 31.507692 14.178462 31.507692 31.507693v236.307692c0 17.329231-14.178462 31.507692-31.507692 31.507692z m-598.646154-63.015384h567.138462V701.046154H228.430769v173.292308zM748.307692 543.507692H275.692308c-17.329231 0-31.507692-14.178462-31.507693-31.507692V354.461538c0-17.329231 14.178462-31.507692 31.507693-31.507692h472.615384c17.329231 0 31.507692 14.178462 31.507693 31.507692v157.538462c0 17.329231-14.178462 31.507692-31.507693 31.507692z m-441.107692-63.015384h409.6V385.969231H307.2v94.523077zM669.538462 118.153846H590.769231v39.384616H433.230769v-39.384616H354.461538L196.923077 354.461538h630.153846zM827.076923 385.969231H196.923077c-11.815385 0-22.055385-6.301538-27.569231-16.541539-5.513846-10.24-4.726154-22.843077 1.575385-32.295384l157.538461-236.307693c5.513846-8.664615 15.753846-14.178462 25.993846-14.178461h78.769231c17.329231 0 31.507692 14.178462 31.507693 31.507692v7.876923h94.523076v-7.876923c0-17.329231 14.178462-31.507692 31.507693-31.507692h78.769231c10.24 0 20.48 5.513846 25.993846 14.178461l157.538461 236.307693c6.301538 9.452308 7.089231 22.055385 1.575385 32.295384-5.513846 10.24-15.753846 16.541538-27.569231 16.541539z m-571.076923-63.015385h512.787692L652.996923 149.661538H622.276923v7.876924c0 17.329231-14.178462 31.507692-31.507692 31.507692H433.230769c-17.329231 0-31.507692-14.178462-31.507692-31.507692v-7.876924h-30.72L256 322.953846zM905.846154 669.538462H118.153846l78.769231-157.538462h630.153846zM905.846154 701.046154H118.153846c-11.027692 0-21.267692-5.513846-26.781538-14.966154-5.513846-9.452308-6.301538-21.267692-1.575385-30.72l78.769231-157.538462c5.513846-11.027692 16.541538-17.329231 28.356923-17.32923h630.153846c11.815385 0 22.843077 7.089231 28.356923 17.32923l78.769231 157.538462c4.726154 9.452308 4.726154 21.267692-1.575385 30.72-5.513846 9.452308-15.753846 14.966154-26.781538 14.966154z m-736.492308-63.015385h686.08l-47.261538-94.523077H216.615385l-47.261539 94.523077z" /></svg>