<?xml version="1.0" standalone="no"?><!DOCTYPE svg PUBLIC "-//W3C//DTD SVG 1.1//EN" "http://www.w3.org/Graphics/SVG/1.1/DTD/svg11.dtd"><svg class="icon" width="200px" height="200.00px" viewBox="0 0 1024 1024" version="1.1" xmlns="http://www.w3.org/2000/svg"><path  d="M832 224l-57.6 0L774.4 160 638.4 160l0 64L375.1744 224 375.1744 160l-136 0 0 64L192 224c-35.3472 0-64 28.6528-64 64l0 512c0 35.3472 28.6528 64 64 64l640 0c35.3344 0 64-28.6528 64-64L896 288C896 252.6528 867.3344 224 832 224zM664.8 191.4688l81.6 0 0 139.2-81.6 0L664.8 191.4688zM464.4416 467.0592c1.8368 7.008 2.6752 14.1312 2.7584 22.432 0 36.2688-24.1984 69.3312-60.7424 81.056-46.5408 14.9312-95.7888-10.4896-110.5856-56.288-10.8992-33.7472 0.8064-71.3344 28.8064-93.184 13.4208-10.4704 28.5568-16.7808 45.4656-18.5408C414.2976 397.952 453.7728 426.1376 464.4416 467.0592zM267.2 191.4688 348.8 191.4688l0 139.2L267.2 330.6688 267.2 191.4688zM526.1952 701.0048c-0.4288 8.0384-4.928 13.7088-11.6288 17.76-6.8544 4.1344-14.4704 6.0992-22.2272 7.52-18.528 3.3856-37.2736 3.5264-56.0128 3.68-18.0032 0.1344-36.0192 0.032-54.0288 0.032 0 0 0-0.0256 0-0.032-19.232 0-38.4704 0.1664-57.696-0.0704-12.2048-0.1536-24.416-0.64-36.576-1.5104-11.0208-0.7936-21.9584-2.4896-32.2432-6.9056-5.7664-2.4768-10.7776-5.952-13.888-11.6416-1.8688-3.4048-2.5024-7.0848-2.6368-10.9184-0.7296-20.6656 3.1552-40.32 13.3184-58.4768 13.2032-23.6032 32.5376-40.2112 57.7344-49.984 13.0176-5.0368 26.56-7.2512 40.4736-7.2768 21.3696-0.032 42.7392-0.0768 64.1024 0.0128 28.3456 0.128 53.44 9.216 74.7008 28.0384 18.9696 16.7808 30.7328 37.7664 35.2 62.7712C526.4 682.9504 526.6816 691.9744 526.1952 701.0048zM774.4 718.4 618.9312 718.4l0-47.8336L774.4 670.5664 774.4 718.4zM774.4 640.2432 618.9312 640.2432l0-47.8336L774.4 592.4096 774.4 640.2432zM774.4 564.9024 618.9312 564.9024l0-47.8336L774.4 517.0688 774.4 564.9024zM774.4 488.3712 618.9312 488.3712l0-47.8336L774.4 440.5376 774.4 488.3712z" /></svg>