<?xml version="1.0" standalone="no"?><!DOCTYPE svg PUBLIC "-//W3C//DTD SVG 1.1//EN" "http://www.w3.org/Graphics/SVG/1.1/DTD/svg11.dtd"><svg class="icon" width="200px" height="200.00px" viewBox="0 0 1024 1024" version="1.1" xmlns="http://www.w3.org/2000/svg"><path  d="M544.983895 534.738897v310.848219c0 16.991703 8.995608 30.984871 19.990239 30.98487s19.990239-13.993167 19.990239-30.98487v-310.848219c0-16.991703-8.995608-30.984871-19.990239-30.984871s-19.990239 13.993167-19.990239 30.984871zM407.051245 534.738897v310.848219c0 16.991703 8.995608 30.984871 19.990239 30.98487s19.990239-13.993167 19.990239-30.98487v-310.848219c0-16.991703-8.995608-30.984871-19.990239-30.984871s-19.990239 13.993167-19.990239 30.984871zM767.375305 711.652513c-10.494876-4.497804-21.989263-1.999024-29.985359 5.997072-7.996096 7.996096-10.494876 19.990239-5.997071 29.985359 4.497804 10.494876 14.492923 16.991703 25.487554 16.991703 14.992679 0 27.486579-12.493899 27.486579-27.486579 0-10.994632-6.496828-20.989751-16.991703-25.487555zM872.823816 709.65349h-14.492923c-2.49878-8.495852-5.497316-16.491947-9.995119-23.988287l12.993655-12.993656c3.998048-3.998048 6.496828-9.99512 6.496828-15.492435 0-5.997072-2.49878-11.494388-6.496828-15.492436l-7.996096-7.996095c-3.998048-3.998048-9.99512-6.496828-15.492435-6.496828-5.997072 0-11.494388 2.49878-15.492435 6.496828l-12.4939 12.493899c-7.996096-4.497804-16.491947-7.996096-24.987799-10.494875v-14.99268c0-11.994143-9.99512-21.989263-21.989263-21.989263H751.88287c-11.994143 0-21.989263 9.99512-21.989263 21.989263v14.99268c-8.995608 2.49878-16.991703 5.997072-24.987799 10.494875l-12.4939-12.493899c-8.495852-8.495852-22.489019-8.495852-30.98487 0l-7.996096 7.996095c-3.998048 3.998048-6.496828 9.99512-6.496828 15.492436 0 5.997072 2.49878 11.494388 6.496828 15.492435l12.993655 12.993656c-4.497804 7.49634-7.49634 15.492435-9.995119 23.988287H641.936554c-5.997072 0-11.494388 2.49878-15.492435 6.496827-3.998048 3.998048-6.496828 9.99512-6.496828 15.492436v10.994631c0 5.997072 2.49878 11.494388 6.496828 15.492435 3.998048 3.998048 9.99512 6.496828 15.492435 6.496828h14.492924c2.49878 8.495852 5.497316 16.491947 9.995119 24.488043l-13.493411 13.493412c-3.998048 3.998048-6.496828 9.99512-6.496828 15.492435 0 5.997072 2.49878 11.494388 6.496828 15.492435l7.996096 7.996096c8.495852 8.495852 22.489019 8.495852 30.98487 0l13.493412-13.493412c7.49634 4.497804 15.492435 7.49634 23.988287 9.99512v13.993167c0 11.994143 9.99512 21.989263 21.989263 21.989263h10.994631c11.994143 0 21.989263-9.99512 21.989263-21.989263v-13.993167c8.495852-2.49878 16.491947-5.497316 23.988287-9.99512l13.493412 13.493412c3.998048 3.998048 9.99512 6.496828 15.492435 6.496828 5.997072 0 11.494388-2.49878 15.492435-6.496828l7.996096-7.996096c3.998048-3.998048 6.496828-9.99512 6.496828-15.492435 0-5.997072-2.49878-11.494388-6.496828-15.492435l-13.493411-13.493412c4.497804-7.49634 7.996096-15.992191 9.995119-24.488043h14.492924c11.994143 0 21.989263-9.99512 21.989263-21.989263V732.142509c0.999512-12.493899-8.995608-22.489019-20.989752-22.489019zM756.880429 798.610054c-33.483651 0-60.470473-26.986823-60.470473-60.470474 0-33.483651 26.986823-60.470473 60.470473-60.470473 33.483651 0 60.470473 26.986823 60.470474 60.970229 0.499756 32.983895-26.986823 59.970717-60.470474 59.970718zM843.338214 982.520254l-90.455832-0.499756v-38.481211c0-22.489019-17.491459-40.480234-39.480723-42.479258l-0.499756 80.460713-437.286481-2.49878 3.498292-619.197657 437.286481 2.498779-0.999512 184.409957c22.489019-0.999512 39.980478-18.990727 39.980479-41.479747l0.999511-142.93021 86.457785 0.499756c10.994632 0 19.990239-8.995608 19.990239-19.990239v-1.999024c0-10.994632-8.995608-19.990239-19.990239-19.990239l-86.95754-0.499756c-4.497804-102.449976-68.466569-189.907272-158.922402-227.38897l0.499756-51.974622c0-21.989263-17.991215-39.980478-39.980478-39.980478l-122.440215-0.999512c-21.989263 0-39.980478 17.991215-39.980478 39.980478l-0.499756 54.973158C307.599805 132.93509 245.630063 217.393851 240.132748 317.345046l-90.455832-0.499756c-10.994632 0-19.990239 8.995608-19.99024 19.99024v1.999023c0 10.994632 8.995608 19.990239 19.99024 19.99024l90.455832 0.499756-1.499268 233.386042h-17.991215c-16.491947 0-29.985359 13.493411-29.985359 29.985358v134.934114c0 16.491947 13.493411 29.985359 29.985359 29.985359H237.134212l-0.999512 190.906784-86.457784-0.499756c-10.994632 0-19.990239 8.995608-19.99024 19.990239v1.999024c0 10.994632 8.995608 19.990239 19.99024 19.990239l86.457784 0.499756 517.247438 2.998536 90.455832 0.499756c10.994632 0 19.990239-8.995608 19.990239-19.990239v-1.999024c-0.999512-10.494876-9.495364-19.490483-20.489995-19.490483zM346.580771 174.414837c40.97999-39.480722 94.953636-61.469985 151.925818-61.469986h1.499268c56.972182 0.499756 110.945827 22.489019 151.925817 62.469497 39.480722 38.48121 61.969741 89.956076 64.968277 144.429478L280.612982 317.345046c2.998536-53.973646 26.487067-104.948755 65.967789-142.930209z" /></svg>