<?xml version="1.0" standalone="no"?><!DOCTYPE svg PUBLIC "-//W3C//DTD SVG 1.1//EN" "http://www.w3.org/Graphics/SVG/1.1/DTD/svg11.dtd"><svg t="1567480387050" class="icon" viewBox="0 0 1024 1024" version="1.1" xmlns="http://www.w3.org/2000/svg" p-id="9367" xmlns:xlink="http://www.w3.org/1999/xlink" width="200" height="200"><defs><style type="text/css"></style></defs><path d="M541.168766 1015.336936A398.041203 398.041203 0 0 1 137.817665 590.757737a26.750622 26.750622 0 0 1 27.810877-25.262241 26.537996 26.537996 0 0 1 25.262241 26.963248 345.600215 345.600215 0 0 0 368.532193 369.379822c219.717135-14.067781 394.79435-189.147869 408.873624-408.867877A345.183584 345.183584 0 0 0 613.133972 184.016118a26.537996 26.537996 0 1 1 0-53.073119h6.154654a398.032583 398.032583 0 0 1 403.351101 424.579199 479.551582 479.551582 0 0 1-144.148785 316.525077 479.551582 479.551582 0 0 1-316.734829 142.870156l-20.587347 0.419505z m0 0" p-id="9368"></path><path d="M481.521488 128.207597l76.855599 76.861346L211.46951 551.973646l-76.855598-76.861345L481.521488 128.207597z m0 0" p-id="9369"></path><path d="M21.695257 381.864404a21.213731 21.213731 0 0 1-15.010231-6.217867 21.245338 21.245338 0 0 1-6.217867-15.010231C0.702771 165.91132 158.563045 8.140119 353.293778 8.025186a21.230971 21.230971 0 1 1 0 42.45907c-171.278684 0.114933-310.131937 138.870493-310.36755 310.15205a21.216605 21.216605 0 0 1-21.230971 21.228098z m0 0" p-id="9370"></path><path d="M119.560581 381.864404a21.222351 21.222351 0 0 1-21.228098-21.228098c0-140.692179 114.053617-254.745795 254.745795-254.745795a21.228098 21.228098 0 0 1 0 42.459069c-117.243003 0-212.289599 95.046596-212.289599 212.289599a21.225225 21.225225 0 0 1-21.228098 21.225225z m0 0" p-id="9371"></path></svg>